<?xml version="1.0" standalone="no"?>
<!DOCTYPE svg PUBLIC "-//W3C//DTD SVG 20010904//EN"
 "http://www.w3.org/TR/2001/REC-SVG-20010904/DTD/svg10.dtd">
<svg version="1.0" xmlns="http://www.w3.org/2000/svg"
 width="363.000000pt" height="363.000000pt" viewBox="0 0 363.000000 363.000000"
 preserveAspectRatio="xMidYMid meet">
<metadata>
Created by potrace 1.14, written by Peter Selinger 2001-2017
</metadata>
<g transform="translate(0.000000,363.000000) scale(0.100000,-0.100000)"
fill="#000000" stroke="none">
<path d="M0 1815 l0 -1815 1815 0 1815 0 0 1815 0 1815 -1815 0 -1815 0 0
-1815z m1877 1678 c26 -15 284 -280 827 -850 43 -45 81 -81 85 -80 9 3 108
-72 174 -133 60 -55 126 -135 167 -205 l24 -40 -24 20 c-14 11 23 -32 82 -96
58 -64 113 -130 122 -147 21 -41 20 -109 -1 -149 -10 -18 -92 -107 -182 -198
l-165 -166 -338 338 c-309 309 -339 337 -355 323 -15 -14 -15 -13 -1 7 8 13
94 106 191 208 257 269 256 262 32 498 -128 135 -350 357 -292 292 17 -19 9
-28 -318 -355 l-336 -336 22 -30 c23 -31 -26 19 -237 238 -145 150 -180 175
-240 164 -42 -8 -98 -60 -355 -338 l-126 -136 336 -338 336 -339 30 25 c28 24
28 24 -4 -15 -19 -22 -107 -117 -196 -210 -89 -94 -170 -185 -180 -204 -12
-24 -16 -48 -12 -79 l5 -45 -38 39 c-64 67 -502 526 -567 595 -43 46 -63 76
-68 102 -14 72 0 101 103 215 53 60 106 119 117 133 l20 24 -24 -20 -25 -20
24 40 c36 61 103 145 152 191 59 56 185 154 190 149 5 -5 190 186 632 650 137
143 262 268 279 278 18 9 48 17 67 17 19 0 50 -8 67 -17z m60 -1481 l120 -127
-123 -129 -124 -128 -117 122 c-65 67 -119 126 -121 131 -4 9 227 259 239 259
3 0 59 -57 126 -128z m1252 -390 c-24 -27 -62 -77 -83 -112 -50 -80 -148 -184
-221 -235 -32 -22 -92 -71 -134 -110 l-76 -69 71 74 c213 226 477 500 482 500
2 0 -15 -22 -39 -48z m-2390 -373 c80 -85 114 -124 75 -88 -38 36 -87 77 -110
91 -90 57 -219 195 -270 288 -10 19 -30 49 -44 66 -39 47 188 -184 349 -357z
m1488 -131 c142 -147 168 -162 234 -139 25 9 13 -8 -73 -97 -56 -60 -206 -217
-333 -350 -252 -266 -267 -277 -344 -253 -31 9 -69 42 -171 149 -120 125 -278
299 -237 262 16 -14 44 12 354 322 l337 337 -24 28 c-30 35 84 -80 257 -259z"/>
<path d="M1713 3454 l-28 -25 33 22 c17 13 32 24 32 26 0 8 -11 1 -37 -23z"/>
<path d="M1585 3318 l-90 -93 93 90 c50 49 92 91 92 92 0 8 -12 -4 -95 -89z"/>
<path d="M1395 3118 l-80 -83 83 80 c76 74 87 85 79 85 -1 0 -38 -37 -82 -82z"/>
<path d="M785 2518 l-40 -43 43 40 c39 36 47 45 39 45 -2 0 -21 -19 -42 -42z"/>
<path d="M2830 2518 c41 -45 50 -53 50 -45 0 2 -21 23 -47 47 l-48 45 45 -47z"/>
</g>
</svg>
